<svg width="36" height="34" viewBox="0 0 36 34" fill="none" xmlns="http://www.w3.org/2000/svg">
<path opacity="0.6" d="M20.5515 33.968C28.7643 32.736 35.0625 25.6502 35.0625 17.0945C35.0625 7.67073 27.4238 0.0319824 18 0.0319824C8.57625 0.0319824 0.9375 7.67073 0.9375 17.0945C0.9375 25.652 7.23575 32.736 15.4485 33.968V22.0715H11.861C11.6354 22.0715 11.4191 21.9819 11.2596 21.8224C11.1001 21.6629 11.0105 21.4465 11.0105 21.221V17.9957C11.0105 17.525 11.392 17.1452 11.861 17.1452H15.4485L15.3225 13.745C15.3225 12.0965 15.6288 9.42073 17.671 7.95773C19.099 6.93748 20.1612 6.74498 21.8657 6.74498C23.3445 6.74498 24.3612 6.89198 25.0332 6.98998L25.3623 7.03373C25.4437 7.04438 25.5186 7.08437 25.5727 7.14623C25.6268 7.20808 25.6565 7.28755 25.6562 7.36973V10.9397C25.6562 11.1375 25.49 11.2897 25.2975 11.2792H25.231C25.0315 11.2862 23.9885 11.33 23.103 11.33C21.5455 11.33 20.5515 12.0405 20.5515 14.4012V17.1452H24.3875C24.9125 17.1452 25.3132 17.6177 25.2275 18.1357L24.7375 21.361C24.7044 21.5594 24.602 21.7397 24.4485 21.8698C24.2951 21.9999 24.1004 22.0713 23.8993 22.0715H20.5515V33.968Z" fill="black"/>
</svg>
