<svg width="34" height="32" viewBox="0 0 34 32" fill="none" xmlns="http://www.w3.org/2000/svg">
<path opacity="0.6" fill-rule="evenodd" clip-rule="evenodd" d="M16.9992 0.0244141C7.95362 0.0244141 0.619995 7.35845 0.619995 16.4053C0.619995 23.6423 5.31224 29.7818 11.8218 31.9465C12.6417 32.0981 12.9399 31.5937 12.9399 31.1582C12.9399 30.7701 12.9256 29.7407 12.9184 28.3723C8.36186 29.3631 7.40047 26.1761 7.40047 26.1761C6.65539 24.284 5.58145 23.7809 5.58145 23.7809C4.09423 22.7653 5.69444 22.7851 5.69444 22.7851C7.33832 22.9014 8.20351 24.4726 8.20351 24.4726C9.66427 26.9758 12.0377 26.2513 12.9705 25.8347C13.1188 24.7742 13.543 24.0539 14.0104 23.6435C10.3737 23.2303 6.54997 21.8249 6.54997 15.5485C6.54997 13.7597 7.18795 12.2972 8.23543 11.1519C8.06785 10.7395 7.50463 9.07415 8.39629 6.81791C8.39629 6.81791 9.77138 6.37775 12.9012 8.49833C14.207 8.13335 15.6085 7.95107 17.0017 7.94561C18.3927 7.95149 19.7947 8.13335 21.1021 8.49833C24.2299 6.37775 25.6029 6.81791 25.6029 6.81791C26.4966 9.07415 25.9338 10.7395 25.7658 11.1519C26.8158 12.2972 27.4492 13.7597 27.4492 15.5485C27.4492 21.8396 23.62 23.2256 19.9711 23.6297C20.5582 24.1358 21.0824 25.1375 21.0824 26.6659C21.0824 28.8545 21.0627 30.6206 21.0627 31.1578C21.0627 31.5967 21.3571 32.107 22.1887 31.9444C28.6911 29.7751 33.38 23.6402 33.38 16.4053C33.38 7.35845 26.0464 0.0244141 16.9992 0.0244141Z" fill="black"/>
</svg>
