<svg width="18" height="18" viewBox="0 0 18 18" fill="none" xmlns="http://www.w3.org/2000/svg">
<g opacity="0.6">
<path fill-rule="evenodd" clip-rule="evenodd" d="M9 4C11.7614 4 14 6.23858 14 9C14 11.7614 11.7614 14 9 14C6.23858 14 4 11.7614 4 9C4 6.23858 6.23858 4 9 4ZM9 6C7.34315 6 6 7.34315 6 9C6 10.6569 7.34315 12 9 12C10.6569 12 12 10.6569 12 9C12 7.34315 10.6569 6 9 6Z" fill="black"/>
<path d="M14 3C14.5523 3 15 3.44772 15 4C15 4.55228 14.5523 5 14 5C13.4477 5 13 4.55228 13 4C13 3.44772 13.4477 3 14 3Z" fill="black"/>
<path fill-rule="evenodd" clip-rule="evenodd" d="M16 0C17.1046 0 18 0.895431 18 2V16C18 17.0357 17.2128 17.887 16.2041 17.9893L16 18H2L1.7959 17.9893C0.854346 17.8938 0.1062 17.1457 0.0107422 16.2041L0 16V2C0 0.895431 0.895431 8.05319e-09 2 0H16ZM2 16H16V2H2V16Z" fill="black"/>
</g>
</svg>
