<svg width="885" height="382" viewBox="0 0 885 382" fill="none" xmlns="http://www.w3.org/2000/svg">
<g opacity="0.1">
<path d="M884.954 380.7L883.046 381.3C882.656 380.058 882.257 378.798 881.849 377.521L883.754 376.913C884.163 378.193 884.563 379.456 884.954 380.7Z" fill="#0057A9"/>
<path d="M878.699 361.511C879.581 364.13 880.435 366.697 881.259 369.207L879.358 369.831C878.536 367.326 877.684 364.763 876.804 362.148L877.752 361.83L878.699 361.511Z" fill="#0057A9"/>
<path d="M873.433 346.224C874.338 348.795 875.221 351.33 876.081 353.825L874.19 354.478C873.332 351.987 872.45 349.455 871.546 346.888L873.433 346.224Z" fill="#0057A9"/>
<path d="M867.961 330.998C868.902 333.564 869.824 336.104 870.726 338.613L868.844 339.29C867.943 336.784 867.023 334.249 866.083 331.687L867.021 331.342L867.961 330.998Z" fill="#0057A9"/>
<path d="M862.299 315.85C863.264 318.383 864.212 320.897 865.144 323.39L863.271 324.09C862.34 321.601 861.393 319.091 860.43 316.562L862.299 315.85Z" fill="#0057A9"/>
<path d="M856.438 300.748C857.438 303.279 858.424 305.797 859.396 308.3L857.531 309.023C856.562 306.525 855.577 304.01 854.578 301.483L856.438 300.748Z" fill="#0057A9"/>
<path d="M850.399 285.761C851.428 288.267 852.444 290.765 853.446 293.253L851.591 294C850.59 291.516 849.577 289.022 848.55 286.521L850.399 285.761Z" fill="#0057A9"/>
<path d="M844.155 270.835C845.215 273.319 846.262 275.8 847.298 278.275L845.453 279.048C844.419 276.576 843.373 274.099 842.315 271.619L844.155 270.835Z" fill="#0057A9"/>
<path d="M837.699 255.993C838.795 258.463 839.881 260.934 840.955 263.404L839.121 264.202C838.049 261.736 836.965 259.269 835.871 256.804L837.699 255.993Z" fill="#0057A9"/>
<path d="M831.024 241.258C832.157 243.706 833.28 246.159 834.393 248.615L832.57 249.44C831.46 246.989 830.339 244.541 829.209 242.098L831.024 241.258Z" fill="#0057A9"/>
<path d="M824.104 226.629C825.278 229.054 826.443 231.49 827.599 233.933L825.79 234.787C824.637 232.35 823.476 229.92 822.305 227.5L824.104 226.629Z" fill="#0057A9"/>
<path d="M816.922 212.136C818.139 214.531 819.347 216.942 820.547 219.363L818.755 220.251C817.558 217.835 816.352 215.431 815.139 213.042L816.922 212.136Z" fill="#0057A9"/>
<path d="M809.434 197.78C810.701 200.145 811.962 202.53 813.214 204.931L811.44 205.855C810.192 203.461 808.935 201.083 807.671 198.725L808.553 198.253L809.434 197.78Z" fill="#0057A9"/>
<path d="M801.604 183.601C802.934 185.935 804.256 188.295 805.57 190.677L804.695 191.16L803.819 191.643C802.509 189.268 801.192 186.916 799.867 184.59L801.604 183.601Z" fill="#0057A9"/>
<path d="M793.4 169.67C794.791 171.949 796.175 174.26 797.552 176.599L795.828 177.613C794.457 175.283 793.078 172.982 791.693 170.712L793.4 169.67Z" fill="#0057A9"/>
<path d="M784.704 155.967C786.179 158.196 787.648 160.464 789.11 162.77L787.421 163.841C785.965 161.546 784.503 159.288 783.036 157.07L784.704 155.967Z" fill="#0057A9"/>
<path d="M775.479 142.672C777.049 144.823 778.615 147.026 780.174 149.275L778.529 150.414C776.979 148.178 775.423 145.989 773.863 143.852L775.479 142.672Z" fill="#0057A9"/>
<path d="M421.884 145.22C419.143 145.629 416.319 145.907 413.419 146.028L413.335 144.03C416.162 143.912 418.916 143.641 421.589 143.242L421.884 145.22Z" fill="#0057A9"/>
<path d="M396.822 142.965C399.615 143.444 402.361 143.761 405.053 143.936L404.923 145.932C402.162 145.753 399.347 145.427 396.484 144.936L396.822 142.965Z" fill="#0057A9"/>
<path d="M438.32 140.985C435.741 141.941 433.035 142.8 430.216 143.527L429.716 141.59C432.467 140.88 435.107 140.043 437.625 139.11L438.32 140.985Z" fill="#0057A9"/>
<path d="M380.854 138.532C383.511 139.557 386.139 140.423 388.732 141.146L388.196 143.072C385.541 142.333 382.852 141.446 380.135 140.398L380.854 138.532Z" fill="#0057A9"/>
<path d="M453.554 133.487C451.276 134.923 448.795 136.321 446.128 137.632L445.246 135.837C447.849 134.558 450.269 133.194 452.487 131.796L453.554 133.487Z" fill="#0057A9"/>
<path d="M765.524 129.823C767.219 131.874 768.909 133.99 770.594 136.168L769.013 137.393C767.34 135.231 765.663 133.131 763.982 131.098L764.754 130.461L765.524 129.823Z" fill="#0057A9"/>
<path d="M365.955 131.219C368.4 132.683 370.828 134.004 373.236 135.19L372.353 136.984C369.894 135.773 367.418 134.427 364.927 132.935L365.955 131.219Z" fill="#0057A9"/>
<path d="M466.635 123.27C465.635 124.081 464.645 124.906 463.665 125.745C462.698 126.661 461.635 127.597 460.478 128.538L459.215 126.987C460.344 126.069 461.378 125.16 462.312 124.274L462.33 124.257L462.35 124.241C463.348 123.385 464.356 122.543 465.374 121.717L466.635 123.27Z" fill="#0057A9"/>
<path d="M353.251 121.492C354.105 122.443 354.916 123.368 355.683 124.262C356.785 125.096 357.884 125.9 358.981 126.674L357.828 128.309C356.686 127.503 355.542 126.666 354.396 125.797L354.311 125.732L354.241 125.65C353.463 124.742 352.635 123.8 351.763 122.829L353.251 121.492Z" fill="#0057A9"/>
<path d="M754.713 117.729C756.56 119.623 758.404 121.603 760.242 123.665L758.75 124.996C756.93 122.955 755.106 120.996 753.281 119.125L754.713 117.729Z" fill="#0057A9"/>
<path d="M479.171 114.129C477.007 115.545 474.878 117.014 472.785 118.539L472.195 117.731L471.606 116.923C473.727 115.378 475.885 113.889 478.076 112.455L479.171 114.129Z" fill="#0057A9"/>
<path d="M342.633 110.535C344.539 112.373 346.345 114.174 348.039 115.92L346.604 117.313C344.924 115.584 343.135 113.797 341.244 111.975L342.633 110.535Z" fill="#0057A9"/>
<path d="M742.732 106.745C744.789 108.401 746.843 110.177 748.894 112.064L747.539 113.535C745.519 111.675 743.498 109.929 741.479 108.304L742.732 106.745Z" fill="#0057A9"/>
<path d="M492.559 106.262C490.266 107.469 488.002 108.727 485.771 110.037L484.758 108.312C487.017 106.986 489.308 105.713 491.627 104.492L492.559 106.262Z" fill="#0057A9"/>
<path d="M331.325 100.293C333.304 101.977 335.217 103.66 337.059 105.327L335.716 106.81C333.889 105.155 331.991 103.486 330.028 101.815L331.325 100.293Z" fill="#0057A9"/>
<path d="M729.153 97.6475C731.494 98.8886 733.833 100.305 736.17 101.884L735.05 103.541C732.766 101.998 730.488 100.619 728.216 99.4141L729.153 97.6475Z" fill="#0057A9"/>
<path d="M506.608 99.6318C504.218 100.639 501.852 101.693 499.512 102.796L498.658 100.987C501.024 99.8719 503.417 98.8055 505.832 97.7881L506.608 99.6318Z" fill="#0057A9"/>
<path d="M319.404 90.7764C321.463 92.3128 323.475 93.8697 325.436 95.4355L324.188 96.998C322.243 95.4452 320.248 93.9019 318.208 92.3789L318.807 91.5781L319.404 90.7764Z" fill="#0057A9"/>
<path d="M520.847 93.2158L521.163 94.1641C518.7 94.9841 516.255 95.8485 513.832 96.7578L513.129 94.8857C515.576 93.9674 518.045 93.0944 520.531 92.2666L520.847 93.2158Z" fill="#0057A9"/>
<path d="M714.038 91.9951C715.319 92.3423 716.565 92.6909 717.776 93.0391C719.069 93.3954 720.361 93.8099 721.654 94.2822L720.968 96.1611C719.72 95.7054 718.476 95.3057 717.234 94.9639L717.224 94.9609C716.023 94.6157 714.786 94.2704 713.515 93.9258L714.038 91.9951Z" fill="#0057A9"/>
<path d="M698.799 88.2871C701.427 88.8608 703.968 89.447 706.412 90.04L705.94 91.9834C703.511 91.394 700.986 90.8117 698.372 90.2412L698.586 89.2646L698.799 88.2871Z" fill="#0057A9"/>
<path d="M536.088 89.7725C533.573 90.4206 531.071 91.1093 528.586 91.8398L528.022 89.9209C530.53 89.1839 533.053 88.4895 535.589 87.8359L536.088 89.7725Z" fill="#0057A9"/>
<path d="M683.427 85.2666C686.057 85.7289 688.628 86.2077 691.132 86.6992L690.746 88.6621C688.255 88.1732 685.698 87.6964 683.081 87.2363L683.427 85.2666Z" fill="#0057A9"/>
<path d="M306.858 82.084C309.011 83.46 311.131 84.8742 313.212 86.3174L312.071 87.9609C310.01 86.5314 307.912 85.1303 305.781 83.7686L306.858 82.084Z" fill="#0057A9"/>
<path d="M551.275 86.3652C548.726 86.8564 546.185 87.3842 543.655 87.9512L543.218 86C545.768 85.4286 548.328 84.8962 550.896 84.4014L551.275 86.3652Z" fill="#0057A9"/>
<path d="M667.943 82.8467C670.572 83.2075 673.158 83.5879 675.696 83.9844L675.388 85.96C672.862 85.5654 670.288 85.1873 667.671 84.8281L667.808 83.8379L667.943 82.8467Z" fill="#0057A9"/>
<path d="M566.644 83.8525C564.072 84.2011 561.503 84.5836 558.94 85.002L558.618 83.0283C561.199 82.607 563.786 82.2211 566.375 81.8701L566.644 83.8525Z" fill="#0057A9"/>
<path d="M652.385 81.002C655.013 81.265 657.61 81.5497 660.172 81.8535L659.937 83.8389C657.387 83.5364 654.802 83.2531 652.186 82.9912L652.385 81.002Z" fill="#0057A9"/>
<path d="M582.129 82.1553C579.545 82.3739 576.959 82.6235 574.375 82.9062L574.158 80.918C576.759 80.6334 579.361 80.382 581.961 80.1621L582.129 82.1553Z" fill="#0057A9"/>
<path d="M636.769 79.7295C639.397 79.8944 642.003 80.0827 644.583 80.293L644.502 81.29L644.42 82.2861C641.853 82.0769 639.259 81.8897 636.644 81.7256L636.769 79.7295Z" fill="#0057A9"/>
<path d="M597.679 81.2031C595.092 81.3027 592.498 81.4313 589.899 81.5898L589.777 79.5938C592.391 79.4343 595 79.3053 597.602 79.2051L597.679 81.2031Z" fill="#0057A9"/>
<path d="M621.11 79.0479C623.738 79.111 626.35 79.2004 628.943 79.3135L628.856 81.3115C626.276 81.199 623.677 81.1107 621.062 81.0479L621.11 79.0479Z" fill="#0057A9"/>
<path d="M613.273 78.9385L613.266 80.9385C610.678 80.9284 608.077 80.9442 605.468 80.9883L605.435 78.9883C608.058 78.9439 610.672 78.9283 613.273 78.9385Z" fill="#0057A9"/>
<path d="M293.653 74.4092C295.908 75.5866 298.139 76.8211 300.342 78.1035L299.336 79.832C297.158 78.5642 294.954 77.3442 292.728 76.1816L293.653 74.4092Z" fill="#0057A9"/>
<path d="M279.74 68.0557C282.106 68.9755 284.458 69.975 286.789 71.043L285.956 72.8613C283.658 71.8087 281.343 70.8247 279.016 69.9199L279.74 68.0557Z" fill="#0057A9"/>
<path d="M265.115 63.5C267.588 64.0698 270.057 64.7454 272.515 65.5156L271.917 67.4248C269.505 66.6689 267.086 66.0067 264.666 65.4492L265.115 63.5Z" fill="#0057A9"/>
<path d="M249.896 61.4287C252.446 61.5197 255.003 61.7489 257.56 62.1025L257.285 64.083C254.792 63.7381 252.303 63.5162 249.825 63.4277L249.861 62.4287L249.896 61.4287Z" fill="#0057A9"/>
<path d="M242.354 63.582C241.111 63.6803 239.873 63.8157 238.641 63.9902L238.546 64.0039L238.451 63.999C237.089 63.9319 235.686 63.8607 234.247 63.7861L234.351 61.7891C235.757 61.8619 237.127 61.9304 238.459 61.9961C239.701 61.8224 240.946 61.6867 242.195 61.5879L242.354 63.582Z" fill="#0057A9"/>
<path d="M217.526 60.8438C220.417 61.018 223.231 61.182 225.951 61.335L225.895 62.333L225.839 63.332C223.116 63.1789 220.299 63.0142 217.406 62.8398L217.526 60.8438Z" fill="#0057A9"/>
<path d="M200.697 59.7637C203.543 59.9575 206.353 60.1432 209.112 60.3203L208.984 62.3164C206.222 62.1392 203.41 61.9528 200.562 61.7588L200.697 59.7637Z" fill="#0057A9"/>
<path d="M183.876 58.5498C186.694 58.7653 189.503 58.9728 192.289 59.1738L192.146 61.1689C189.357 60.9678 186.545 60.7596 183.724 60.5439L183.876 58.5498Z" fill="#0057A9"/>
<path d="M167.074 57.1846C169.865 57.4255 172.669 57.6601 175.474 57.8877L175.312 59.8809C172.504 59.653 169.697 59.419 166.902 59.1777L167.074 57.1846Z" fill="#0057A9"/>
<path d="M150.283 55.6338C153.047 55.9077 155.85 56.1748 158.677 56.4355L158.493 58.4268C155.662 58.1656 152.855 57.8985 150.086 57.624L150.283 55.6338Z" fill="#0057A9"/>
<path d="M133.525 53.8291C136.252 54.1497 139.051 54.4628 141.908 54.7695L141.802 55.7646L141.694 56.7588C138.831 56.4514 136.026 56.1369 133.292 55.8154L133.525 53.8291Z" fill="#0057A9"/>
<path d="M116.854 51.6318C119.498 52.0267 122.277 52.4142 125.17 52.793L124.91 54.7764C122.007 54.3962 119.215 54.0073 116.559 53.6104L116.854 51.6318Z" fill="#0057A9"/>
<path d="M100.32 48.624C102.75 49.1877 105.509 49.741 108.549 50.2822L108.373 51.2666L108.198 52.252C105.134 51.7064 102.341 51.1457 99.8691 50.5723L100.32 48.624Z" fill="#0057A9"/>
<path d="M89.1426 44.1836L89.3086 44.4121C89.6738 44.9142 90.6296 45.5627 92.3789 46.2773L91.623 48.1289C89.9948 47.4638 88.652 46.7155 87.8828 45.8262L84.6484 44.4863L85.4141 42.6387L89.1426 44.1836Z" fill="#0057A9"/>
<path d="M78.4766 39.7637L77.7109 41.6113L70.7734 38.7363L71.5391 36.8887L78.4766 39.7637Z" fill="#0057A9"/>
<path d="M64.6016 34.0137L63.8359 35.8613L56.8984 32.9863L57.6641 31.1387L64.6016 34.0137Z" fill="#0057A9"/>
<path fill-rule="evenodd" clip-rule="evenodd" d="M37.5996 7.68945L31.043 17.2119L8.76367 5.88184L27.2959 22.6533L20.7383 32.1758L0.601562 0.260742L37.5996 7.68945ZM20.8564 26.1807L22.9355 23.1611L13.6699 14.7744L20.8564 26.1807ZM29.9609 12.958L32.041 9.9375L18.8213 7.29297L29.9609 12.958Z" fill="#0057A9"/>
<path d="M50.7266 28.2637L49.9609 30.1113L43.0234 27.2363L43.7891 25.3887L50.7266 28.2637Z" fill="#0057A9"/>
<path d="M36.8516 22.5137L36.0859 24.3613L32.6172 22.9238L33.3828 21.0762L36.8516 22.5137Z" fill="#0057A9"/>
</g>
</svg>
