<svg width="20" height="20" viewBox="0 0 20 20" fill="none" xmlns="http://www.w3.org/2000/svg">
<path opacity="0.6" d="M10.001 0C4.47598 0 0.00098028 4.475 0.00098028 10C-0.00083036 12.0993 0.658736 14.1458 1.88603 15.849C3.11333 17.5522 4.84598 18.8254 6.83798 19.488C7.33798 19.575 7.52598 19.275 7.52598 19.012C7.52598 18.775 7.51298 17.988 7.51298 17.15C5.00098 17.613 4.35098 16.538 4.15098 15.975C4.03798 15.687 3.55098 14.8 3.12598 14.562C2.77598 14.375 2.27598 13.912 3.11298 13.9C3.90098 13.887 4.46298 14.625 4.65098 14.925C5.55098 16.437 6.98798 16.012 7.56298 15.75C7.65098 15.1 7.91298 14.663 8.20098 14.413C5.97598 14.163 3.65098 13.3 3.65098 9.475C3.65098 8.387 4.03798 7.488 4.67598 6.788C4.57598 6.538 4.22598 5.513 4.77598 4.138C4.77598 4.138 5.61298 3.875 7.52598 5.162C8.34014 4.93664 9.18121 4.82327 10.026 4.825C10.876 4.825 11.726 4.937 12.526 5.162C14.439 3.862 15.276 4.138 15.276 4.138C15.826 5.513 15.476 6.538 15.376 6.788C16.013 7.488 16.401 8.375 16.401 9.475C16.401 13.313 14.064 14.163 11.839 14.413C12.201 14.725 12.514 15.325 12.514 16.263C12.514 17.6 12.501 18.675 12.501 19.013C12.501 19.275 12.689 19.587 13.189 19.487C15.1735 18.8161 16.8978 17.5401 18.1195 15.8384C19.3412 14.1367 19.9989 12.0948 20 10C20 4.475 15.525 0 9.99998 0" fill="black"/>
</svg>
